# Blender 3.1.0
# www.blender.org
mtllib Sketchfab_2023_02_26_14_04_43.mtl
o Cylinder
v 1.330517 -0.123216 1.091721
v 1.330517 1.543945 1.091721
v 1.347838 -0.123216 1.101721
v 1.347838 1.543945 1.101721
v 1.347838 -0.123216 1.121721
v 1.347838 1.543945 1.121721
v 1.330517 -0.123216 1.131721
v 1.330517 1.543945 1.131721
v 1.313197 -0.123216 1.121721
v 1.313197 1.543945 1.121721
v 1.313197 -0.123216 1.101721
v 1.313197 1.543945 1.101721
v -1.330517 -0.123216 1.091721
v -1.330517 1.543945 1.091721
v -1.347838 -0.123216 1.101721
v -1.347838 1.543945 1.101721
v -1.347838 -0.123216 1.121721
v -1.347838 1.543945 1.121721
v -1.330517 -0.123216 1.131721
v -1.330517 1.543945 1.131721
v -1.313197 -0.123216 1.121721
v -1.313197 1.543945 1.121721
v -1.313197 -0.123216 1.101721
v -1.313197 1.543945 1.101721
v -1.338353 1.429866 1.112170
v 1.338353 1.429866 1.112170
v -1.338353 0.153392 1.112170
v 1.338353 0.153392 1.112170
vn 0.5000 -0.0000 -0.8660
vn 1.0000 -0.0000 -0.0000
vn 0.5000 -0.0000 0.8660
vn -0.5000 -0.0000 0.8660
vn -0.0000 1.0000 -0.0000
vn -1.0000 -0.0000 -0.0000
vn -0.5000 -0.0000 -0.8660
vn -0.0000 -0.0000 -1.0000
vt 0.000000 0.046532
vt 0.197401 0.684754
vt 1.000000 0.046532
vt 0.000000 0.093063
vt 1.000000 0.093064
vt 0.207790 0.661488
vt 0.000000 0.139595
vt 1.000000 0.139596
vt 0.207790 0.614956
vt 0.000000 0.186127
vt 1.000000 0.186127
vt 0.197401 0.591690
vt 0.000000 0.232659
vt 0.187012 0.614956
vt 1.000000 0.232659
vt 0.000000 0.279190
vt 0.000000 0.000000
vt 0.187012 0.661488
vt 1.000000 0.279191
vt 1.000000 0.000000
vt 1.000000 0.296532
vt 0.436548 0.748083
vt 0.000000 0.296532
vt 1.000000 0.343064
vt 0.000000 0.343063
vt 0.424551 0.748083
vt 1.000000 0.389596
vt 0.000000 0.389595
vt 0.418553 0.707785
vt 1.000000 0.436127
vt 0.000000 0.436127
vt 0.424551 0.667487
vt 1.000000 0.482659
vt 0.436548 0.667487
vt 0.000000 0.482659
vt 1.000000 0.529191
vt 1.000000 0.250000
vt 0.442546 0.707785
vt 0.000000 0.529190
vt 0.000000 0.250000
vt -0.001481 2.000000
vt -0.001481 0.000000
vt 1.004443 2.000000
vt 1.004443 0.000000
s 0
usemtl rusted_pipe
f 1/1/1 2/3/1 4/5/1 3/4/1
f 3/4/2 4/5/2 6/8/2 5/7/2
f 5/7/3 6/8/3 8/11/3 7/10/3
f 7/10/4 8/11/4 10/15/4 9/13/4
f 4/6/5 2/2/5 12/18/5 10/14/5 8/12/5 6/9/5
f 9/13/6 10/15/6 12/19/6 11/16/6
f 11/17/7 12/20/7 2/3/7 1/1/7
f 13/21/7 15/24/7 16/25/7 14/23/7
f 15/24/6 17/27/6 18/28/6 16/25/6
f 17/27/4 19/30/4 20/31/4 18/28/4
f 19/30/3 21/33/3 22/35/3 20/31/3
f 16/26/5 18/29/5 20/32/5 22/34/5 24/38/5 14/22/5
f 21/33/2 23/36/2 24/39/2 22/35/2
f 23/37/1 13/21/1 14/23/1 24/40/1
usemtl TexturesCom_MetalVarious0026_1_seamless_S
f 25/41/8 26/42/8 28/44/8 27/43/8
o TexturesCom_MetalVarious0026_1_seamless_S.002
v -1.337772 1.429866 1.971273
v 1.338933 1.429866 1.971273
v -1.337772 0.153392 1.971273
v 1.338933 0.153392 1.971273
v 1.319281 1.431319 1.953977
v -1.328930 1.431320 1.953977
v 1.319281 1.445777 1.962324
v -1.328930 1.445777 1.962324
v 1.319281 1.445777 1.979018
v -1.328930 1.445777 1.979018
v 1.319281 1.431319 1.987365
v -1.328930 1.431320 1.987365
v 1.319281 1.416862 1.979018
v -1.328930 1.416862 1.979018
v 1.319281 1.416862 1.962324
v -1.328930 1.416862 1.962324
v 1.331098 -0.123216 1.950824
v 1.331098 1.543945 1.950824
v 1.348418 -0.123216 1.960824
v 1.348418 1.543945 1.960824
v 1.348418 -0.123216 1.980824
v 1.348418 1.543945 1.980824
v 1.331098 -0.123216 1.990824
v 1.331098 1.543945 1.990824
v 1.313777 -0.123216 1.980824
v 1.313777 1.543945 1.980824
v 1.313777 -0.123216 1.960824
v 1.313777 1.543945 1.960824
v -1.329937 -0.123215 1.950824
v -1.329937 1.543945 1.950824
v -1.347257 -0.123215 1.960824
v -1.347257 1.543945 1.960824
v -1.347257 -0.123215 1.980824
v -1.347257 1.543945 1.980824
v -1.329937 -0.123215 1.990824
v -1.329937 1.543945 1.990824
v -1.312616 -0.123215 1.980824
v -1.312616 1.543945 1.980824
v -1.312616 -0.123215 1.960824
v -1.312616 1.543945 1.960824
vn -0.0000 -0.0000 -1.0000
vn -0.0000 0.5000 -0.8660
vn -0.0000 1.0000 -0.0000
vn -0.0000 0.5000 0.8660
vn -0.0000 -0.5000 0.8660
vn -0.0000 -1.0000 -0.0000
vn -0.0000 -0.5000 -0.8660
vn 0.5000 -0.0000 -0.8660
vn 1.0000 -0.0000 -0.0000
vn 0.5000 -0.0000 0.8660
vn -0.5000 -0.0000 0.8660
vn -1.0000 -0.0000 -0.0000
vn -0.5000 -0.0000 -0.8660
vt 0.989678 0.004444
vt 0.989678 1.998833
vt -0.013424 0.004444
vt -0.013424 1.998833
vt 1.000000 0.122258
vt 0.000000 0.122258
vt 1.000000 0.097807
vt 0.000000 0.097806
vt 1.000000 0.073355
vt 0.000000 0.073354
vt 1.000000 0.048903
vt 0.000000 0.048903
vt 1.000000 0.024452
vt 0.000000 0.024451
vt 1.000000 0.000000
vt 1.000000 0.146709
vt 0.000000 0.000000
vt 0.000000 0.146709
vt 0.000000 0.410353
vt 0.003776 0.548972
vt 0.629543 0.410353
vt 0.000000 0.439646
vt 0.629543 0.439646
vt 0.011328 0.548972
vt 0.000000 0.468940
vt 0.629543 0.468940
vt 0.015105 0.523603
vt 0.000000 0.498234
vt 0.000000 0.322472
vt 0.629542 0.498234
vt 0.629542 0.322472
vt 0.011328 0.498234
vt 0.000000 0.351765
vt 0.003776 0.498234
vt 0.629543 0.351765
vt 0.000000 0.381059
vt 0.000000 0.523603
vt 0.629543 0.381059
vt 0.629541 0.234590
vt 0.018881 0.548972
vt 0.000000 0.234590
vt 0.629541 0.263884
vt 0.000000 0.263884
vt 0.015105 0.523603
vt 0.629541 0.293177
vt 0.000000 0.293177
vt 0.018881 0.498234
vt 0.629541 0.322472
vt 0.629541 0.146709
vt 0.000000 0.322471
vt 0.000000 0.146709
vt 0.026433 0.498234
vt 0.629541 0.176003
vt 0.030209 0.523603
vt 0.000000 0.176003
vt 0.629541 0.205297
vt 0.026433 0.548972
vt 0.000000 0.205296
s 0
usemtl TexturesCom_MetalVarious0026_1_seamless_S
f 29/45/9 30/46/9 32/48/9 31/47/9
usemtl rusted_pipe
f 33/49/10 34/50/10 36/52/10 35/51/10
f 35/51/11 36/52/11 38/54/11 37/53/11
f 37/53/12 38/54/12 40/56/12 39/55/12
f 39/55/13 40/56/13 42/58/13 41/57/13
f 41/57/14 42/58/14 44/61/14 43/59/14
f 43/60/15 44/62/15 34/50/15 33/49/15
f 45/63/16 46/65/16 48/67/16 47/66/16
f 47/66/17 48/67/17 50/70/17 49/69/17
f 49/69/18 50/70/18 52/74/18 51/72/18
f 51/73/19 52/75/19 54/79/19 53/77/19
f 48/68/11 46/64/11 56/81/11 54/78/11 52/76/11 50/71/11
f 53/77/20 54/79/20 56/82/20 55/80/20
f 55/80/21 56/82/21 46/65/21 45/63/21
f 57/83/21 59/86/21 60/87/21 58/85/21
f 59/86/20 61/89/20 62/90/20 60/87/20
f 61/89/19 63/92/19 64/94/19 62/90/19
f 63/93/18 65/97/18 66/99/18 64/95/18
f 60/88/11 62/91/11 64/96/11 66/98/11 68/101/11 58/84/11
f 65/97/17 67/100/17 68/102/17 66/99/17
f 67/100/16 57/83/16 58/85/16 68/102/16
o Cylinder.001
v 4.360269 -0.121163 1.091664
v 4.360269 1.545998 1.091664
v 4.377589 -0.121163 1.101664
v 4.377589 1.545998 1.101664
v 4.377589 -0.121163 1.121664
v 4.377589 1.545998 1.121664
v 4.360269 -0.121163 1.131664
v 4.360269 1.545998 1.131664
v 4.342948 -0.121163 1.121664
v 4.342948 1.545998 1.121664
v 4.342948 -0.121163 1.101664
v 4.342948 1.545998 1.101664
v 1.692425 1.429866 1.110463
v 4.369130 1.429866 1.110463
v 1.692425 0.153392 1.110463
v 4.369130 0.153392 1.110463
vn 0.5000 -0.0000 -0.8660
vn 1.0000 -0.0000 -0.0000
vn 0.5000 -0.0000 0.8660
vn -0.5000 -0.0000 0.8660
vn -0.0000 1.0000 -0.0000
vn -1.0000 -0.0000 -0.0000
vn -0.5000 -0.0000 -0.8660
vn -0.0000 -0.0000 -1.0000
vt 1.000000 0.482659
vt 0.017995 0.609786
vt 0.000000 0.482659
vt 1.000000 0.436128
vt 0.000000 0.436127
vt 0.023993 0.569488
vt 1.000000 0.389596
vt 0.000000 0.389595
vt 0.017995 0.529191
vt 1.000000 0.343064
vt 0.000000 0.343063
vt 0.005998 0.529191
vt 1.000000 0.296533
vt 0.000000 0.569489
vt 0.000000 0.296532
vt 1.000000 0.250000
vt 1.000000 0.529191
vt 0.005998 0.609786
vt 0.000000 0.250000
vt 0.000000 0.529190
vt -0.001481 2.000000
vt -0.001481 0.000000
vt 1.004443 2.000000
vt 1.004443 0.000000
s 0
usemtl rusted_pipe
f 69/103/22 70/105/22 72/107/22 71/106/22
f 71/106/23 72/107/23 74/110/23 73/109/23
f 73/109/24 74/110/24 76/113/24 75/112/24
f 75/112/25 76/113/25 78/117/25 77/115/25
f 72/108/26 70/104/26 80/120/26 78/116/26 76/114/26 74/111/26
f 77/115/27 78/117/27 80/121/27 79/118/27
f 79/119/28 80/122/28 70/105/28 69/103/28
usemtl TexturesCom_MetalVarious0026_1_seamless_S
f 81/123/29 82/124/29 84/126/29 83/125/29
o Cylinder.004
v 4.333003 -0.127986 1.959498
v 4.333003 1.539175 1.959498
v 4.350323 -0.127986 1.969498
v 4.350323 1.539175 1.969498
v 4.350323 -0.127986 1.989498
v 4.350323 1.539175 1.989498
v 4.333003 -0.127986 1.999498
v 4.333003 1.539175 1.999498
v 4.315682 -0.127986 1.989498
v 4.315682 1.539175 1.989498
v 4.315682 -0.127986 1.969498
v 4.315682 1.539175 1.969498
v 1.661647 1.429866 1.978550
v 4.338353 1.429866 1.978550
v 1.661647 0.153392 1.978550
v 4.338353 0.153392 1.978550
v 4.335298 1.431319 1.962458
v 1.653893 1.431319 1.962458
v 4.335298 1.445777 1.970805
v 1.653893 1.445777 1.970805
v 4.335298 1.445777 1.987499
v 1.653893 1.445777 1.987499
v 4.335298 1.431319 1.995846
v 1.653893 1.431319 1.995846
v 4.335298 1.416862 1.987499
v 1.653893 1.416862 1.987499
v 4.335298 1.416862 1.970805
v 1.653893 1.416862 1.970805
vn 0.5000 -0.0000 -0.8660
vn 1.0000 -0.0000 -0.0000
vn 0.5000 -0.0000 0.8660
vn -0.5000 -0.0000 0.8660
vn -0.0000 1.0000 -0.0000
vn -1.0000 -0.0000 -0.0000
vn -0.5000 -0.0000 -0.8660
vn -0.0000 -0.0000 -1.0000
vn -0.0000 0.5000 -0.8660
vn -0.0000 0.5000 0.8660
vn -0.0000 -0.5000 0.8660
vn -0.0000 -1.0000 -0.0000
vn -0.0000 -0.5000 -0.8660
vt 0.000000 0.606686
vt 0.003729 0.318479
vt 0.621749 0.606687
vt 0.000000 0.635617
vt 0.621749 0.635617
vt 0.000000 0.343534
vt 0.000000 0.664548
vt 0.621749 0.664549
vt 0.003729 0.368589
vt 0.000000 0.693479
vt 0.000000 0.519893
vt 0.621749 0.693479
vt 0.621749 0.519893
vt 0.011188 0.368590
vt 0.000000 0.548824
vt 0.014918 0.343534
vt 0.621749 0.548824
vt 0.000000 0.577755
vt 0.011188 0.318479
vt 0.621749 0.577756
vt -0.006550 1.996797
vt -0.006550 -0.003202
vt 0.999374 1.996798
vt 0.999374 -0.003202
vt 0.000000 0.399149
vt 0.032796 0.441947
vt 1.000000 0.399149
vt 0.000000 0.423298
vt 1.000000 0.423298
vt 0.024256 0.441947
vt 0.000000 0.447446
vt 1.000000 0.447447
vt 0.019986 0.470634
vt 0.000000 0.471595
vt 1.000000 0.471596
vt 0.024256 0.499322
vt 0.000000 0.495744
vt 0.032796 0.499322
vt 1.000000 0.495744
vt 0.000000 0.519893
vt 0.000000 0.375000
vt 0.037066 0.470634
vt 1.000000 0.519893
vt 1.000000 0.375000
s 0
usemtl rusted_pipe
f 85/127/30 86/129/30 88/131/30 87/130/30
f 87/130/31 88/131/31 90/134/31 89/133/31
f 89/133/32 90/134/32 92/138/32 91/136/32
f 91/137/33 92/139/33 94/143/33 93/141/33
f 88/132/34 86/128/34 96/145/34 94/142/34 92/140/34 90/135/34
f 93/141/35 94/143/35 96/146/35 95/144/35
f 95/144/36 96/146/36 86/129/36 85/127/36
usemtl TexturesCom_MetalVarious0026_1_seamless_S
f 97/147/37 98/148/37 100/150/37 99/149/37
usemtl rusted_pipe
f 101/151/38 102/153/38 104/155/38 103/154/38
f 103/154/34 104/155/34 106/158/34 105/157/34
f 105/157/39 106/158/39 108/161/39 107/160/39
f 107/160/40 108/161/40 110/165/40 109/163/40
f 104/156/35 102/152/35 112/168/35 110/164/35 108/162/35 106/159/35
f 109/163/41 110/165/41 112/169/41 111/166/41
f 111/167/42 112/170/42 102/153/42 101/151/42
